/* XPM */
static char *so_long_p3[] = {
/* columns rows colors chars-per-pixel */
"55 64 164 2 ",
"   c None",
".  c #33323D",
"X  c #34323E",
"o  c #353340",
"O  c #363541",
"+  c #3E3640",
"@  c #3E3842",
"#  c #3D3C46",
"$  c #3F3E49",
"%  c #3D384C",
"&  c #3D3C4D",
"*  c #463942",
"=  c #403E41",
"-  c #453D42",
";  c #443B44",
":  c #403C44",
">  c #4F3C44",
",  c #423B53",
"<  c #453D57",
"1  c #463F59",
"2  c #483F5B",
"3  c #42414B",
"4  c #4E464B",
"5  c #504346",
"6  c #5A4147",
"7  c #54454B",
"8  c #58474C",
"9  c #5E4C4A",
"0  c #5E4A4E",
"q  c #414053",
"w  c #46455A",
"e  c #514355",
"r  c #504F59",
"t  c #5B5052",
"y  c #67454A",
"u  c #734B4D",
"i  c #764B4D",
"p  c #6C544E",
"a  c #664F52",
"s  c #724E50",
"d  c #6A5154",
"f  c #715A50",
"g  c #765D55",
"h  c #73565A",
"j  c #7B5A5A",
"k  c #71605D",
"l  c #4D4262",
"z  c #4A4460",
"x  c #4A4960",
"c  c #4D4964",
"v  c #4D4C64",
"b  c #4F4F68",
"n  c #55476F",
"m  c #575760",
"M  c #535268",
"N  c #564870",
"B  c #5B4B78",
"V  c #5D4C7A",
"C  c #5A5978",
"Z  c #5C5C7C",
"A  c #675765",
"S  c #604E7F",
"D  c #7A5C7E",
"F  c #77767E",
"G  c #875151",
"H  c #835454",
"J  c #855A53",
"K  c #995957",
"L  c #9C5956",
"P  c #8F6958",
"I  c #8D6C5E",
"U  c #9D725D",
"Y  c #A0665A",
"T  c #AA615B",
"R  c #AE605B",
"E  c #BA645E",
"W  c #A5775F",
"Q  c #916763",
"!  c #9A6C67",
"~  c #8A726A",
"^  c #877273",
"/  c #AC766F",
"(  c #C56860",
")  c #D06C63",
"_  c #D27164",
"`  c #D57B67",
"'  c #D67F69",
"]  c #948273",
"[  c #A58677",
"{  c #AC8879",
"}  c #BD8075",
"|  c #B08E7D",
" . c #B0A164",
".. c #B9A47F",
"X. c #CD8468",
"o. c #C68A69",
"O. c #D18369",
"+. c #D7836A",
"@. c #D98A6C",
"#. c #DB8E6D",
"$. c #D2926C",
"%. c #D6946E",
"&. c #DC936E",
"*. c #C28378",
"=. c #C08A7C",
"-. c #C68F7F",
";. c #CD897C",
":. c #DE9970",
">. c #E1A477",
",. c #E2A678",
"<. c #EED878",
"1. c #665287",
"2. c #625E84",
"3. c #68538A",
"4. c #636386",
"5. c #656489",
"6. c #66668C",
"7. c #7C7B82",
"8. c #6A6390",
"9. c #6E6095",
"0. c #6A6A91",
"q. c #6C6B93",
"w. c #706498",
"e. c #716A9B",
"r. c #72689C",
"t. c #746D9F",
"y. c #71719B",
"u. c #73739F",
"i. c #797998",
"p. c #756EA0",
"a. c #7676A3",
"s. c #7772A4",
"d. c #7875A6",
"f. c #7B7BAB",
"g. c #8C6685",
"h. c #94898C",
"j. c #8882AE",
"k. c #9A8CB1",
"l. c #9E9BBE",
"z. c #A0A0A5",
"x. c #B7B7BB",
"c. c #BBBBBE",
"v. c #C69E88",
"b. c #D89A87",
"n. c #CDA38C",
"m. c #D1A58D",
"M. c #D3A88F",
"N. c #DAAD93",
"B. c #E8B984",
"V. c #E7B196",
"C. c #E8B397",
"Z. c #EEBC9D",
"A. c #C0B4B6",
"S. c #EAC088",
"D. c #B4B4CF",
"F. c #C4BBD1",
"G. c #CDC6D8",
"H. c #F9F2D2",
"J. c #D9D4E2",
"K. c #E6E2EC",
"L. c #F0F0F1",
"P. c #F2F1F5",
"I. c #F8F8F8",
"U. c white",
/* pixels */
"                                . . . . . . . . . . . . . . . . . . . . . . .                                 ",
"                                . . . . . . . . . . . . . . . . . . . . . . .                                 ",
"                              % < < < < < x x x x x x x x x x x x x x x x x x q                               ",
"                            . < 3.3.3.3.3.f.f.f.f.f.f.f.f.f.f.f.f.f.f.f.f.f.f.x .                             ",
"                        . . n B 3.3.w.t.t.v v v v v v v v v v v v v v v Z f.f.0.4.. .                         ",
"                      . . . 3.3.3.3.p.f.f.. . . . . . . . . . . . . . . x f.f.f.f.. . .                       ",
"                      . . . 3.3.3.3.p.f.f.. . . . . . . . . . . . . . . x f.f.f.f.. . .                       ",
"                      . . . 3.3.3.3.1 O O I.I.I.I.I.I.I.I.I.I.I.I.I.I.I.x.O O 5.f.. . .                       ",
"                      . . . 3.3.3.3.< . . U.U.U.U.U.U.U.U.U.U.U.U.U.U.U.c.. . 4.f.. . .                       ",
"                      . . . 3.3.3.3.< . . U.c.. . . . U.U.c.. . . . U.U.c.. . 4.f.. . .                       ",
"                      . . . 3.3.3.3.< . . U.c.. . . . U.U.c.. . . . U.U.c.. . 4.f.. . .                       ",
"                      . . . 3.3.3.3.< . . U.c.. . . . U.U.c.. . . . U.U.c.. . 4.f.. . .                       ",
"                      . . . 3.3.3.3.< . . U.c.. . . . U.U.c.. . . . U.U.c.. . 4.f.. . .                       ",
"                      . . . 3.3.3.3.< . . U.c.. . . . U.U.c.. . . . U.U.c.. . 4.f.. . .                       ",
"                      . . . 3.3.3.3.e.a.a.3 7.L.L.L.L.U.U.I.L.L.L.L.3 3 M a.a.f.f.. . .                       ",
"                      . . . 3.3.3.3.p.f.f.. F U.U.K.J.U.U.P.J.J.P.U.. . x f.f.f.f.. . .                       ",
"                      . . . 3.3.3.3.p.f.f.. F U.U.k.3.U.U.G.3.3.G.U.. . x f.f.f.f.. . .                       ",
"                      . . . 3.3.3.3.p.f.f.. F U.U.k.3.U.U.G.3.3.G.U.. . x f.f.f.f.. . .                       ",
"      . . . . . .     . . . 3.3.3.3.p.f.f.Z i.D.D.j.r.D.D.l.r.r.l.D.Z Z 6.f.f.f.f.. . .     . . . . . .       ",
"      . . . . . .     . . . 3.3.3.3.p.f.f.f.f.f.f.f.f.f.f.f.f.f.f.f.f.f.f.f.f.f.f.. . .     . . . . . .       ",
". . x u.u.u.u.. .     . . . 3.3.3.3.p.f.f.f.f.f.f.f.f.f.f.f.f.f.f.f.f.f.f.f.f.f.f.. . .     . . u.u.u.u.x . . ",
". . x f.f.f.f.. .     . . . 3.3.3.3.p.f.f.f.f.f.f.f.f.f.f.f.f.f.f.f.f.f.f.f.f.f.f.. . .     . . f.f.f.f.x . . ",
". . x f.y.q.q.. .     . . . V S 3.3.e.s.s.s.d.f.f.f.f.f.f.f.f.f.f.f.s.s.d.f.f.d.s.% % %     . . q.q.y.f.x . . ",
". . x f.x . . . . . . . . . . < 3.3.3.3.3.3.9.f.f.f.f.f.f.f.f.f.f.f.3.3.9.f.f.9.3.3.3.N . . . . . . x f.x . . ",
". . x f.x . . . . . . . . . . < 3.3.3.3.3.3.9.f.f.f.f.f.f.f.f.f.f.f.3.3.9.f.f.9.3.3.3.N . . . . . . x f.x . . ",
". . x f.5.C C C C C C C C C C 2.r.r.r.r.r.r.p.f.f.f.f.f.f.f.f.f.f.f.r.r.p.f.f.p.r.r.r.8.C C C C C C 5.f.x . . ",
". . x f.f.f.f.f.f.f.f.f.f.f.f.f.f.f.f.f.f.f.f.f.f.f.f.f.f.f.f.f.f.f.f.f.f.f.f.f.f.f.f.f.f.f.f.f.f.f.f.f.x . . ",
"      & & & & & & & & & & & & & & & & & & & & & & & & & & & & & & & & & & & & & & & & & & & & & & & & &       ",
"      . . . . . . . . . . . . . . . . . . . . . . . . . . . . . . . . . . . . . . . . . . . . . . . . .       ",
"      . . . . . . . . . . . . . . . . . . . . . . * > > > > > > > > > > * . . . . . . . . . . . . . . .       ",
"                  . . . . . . . . . . . . . . . . L ) ) ) ) ) ) ) ) ) ) L . . . . . . . . .                   ",
"                  . . . . . . . . . . . . . . . . L ) ) ) ) ) ) ) ) ) ) L . . . . . . . . .                   ",
"                  . . ! ;.;.. F U.U.U.U.U.. y ) ) @.:.:.:.:.:.:.:.:.:.:.:.:.:.p . ;.;.! . .                   ",
"                  . . ! ;.;.. F U.U.U.U.U.. y ) ) @.:.:.:.:.:.:.:.:.:.:.:.:.:.p . ;.;.! . .                   ",
"                  . . ! ;.;.. $ m m m m m . y ) ) @.:.:.:.>.B.B.B.B.:.:.:.:.:.p . C.C.{ . .                   ",
"                  . . ! ;.;.. . . . . . . . y ) ) @.:.:.:.,.S.S.S.S.:.:.:.:.:.p . Z.Z.| . .                   ",
"                  . . ! ;.;.. # r r # . . r h E E O.&.:.:.>.B.B.B.B.:.:.%.o.o.g 4 Z.Z.| . .                   ",
"                  . . ! ;.;.. F U.U.F . . U.c.. . L ) :.:.:.:.:.:.:.:.:.W . . | Z.Z.Z.| . .                   ",
"                  . . ! ;.;.j ^ z.z.m . . z.h.j j H G P P P P P P P P P I ~ ~ n.Z.Z.Z.| . .                   ",
"              . . . . ! ;.;.;.! . . . . . . a ;.;.a . . . . . . . . . . k Z.Z.Z.Z.Z.Z.| . .                   ",
"              . . . . ! ;.;.;.! . . . . . . a ;.;.a . . . . . . . . . . k Z.Z.Z.Z.Z.Z.| . .                   ",
"        . . . R R R R s 7 7 ;.*./ / / / / / =.V.V.m.v.v.v.v.v.v.v.v.v.v.M.Z.Z.Z.Z.t t 4 . . . .               ",
"        . . . ) ) ) ) y . . ;.;.;.;.;.;.;.;.b.Z.Z.Z.Z.Z.Z.Z.Z.Z.Z.Z.Z.Z.Z.Z.Z.Z.Z.. . . . . . .               ",
"        - - - _ _ _ _ u * * } } } } } } } } -.N.N.N.N.N.N.N.N.N.N.N.N.N.N.N.N.N.N.* * + . . * *               ",
"      . W :.:.:.:.:.:.` ) ) . . . . . . . . . . . . . . . . . . . . . . . . . . . ) ) L . . ) ) . . .         ",
"      . W :.:.:.:.:.:.` ) ) i i i i i i i i i i i i i i i i i i i i i i i i i i i ' ' Y . . ) ) . . .         ",
"      . W :.:.:.:.:.:.` ) ) ) ) ) ) ) ) ) ) ) ) ) ) ) ) ) ) ) ) ) ) ) ) ) ) ) ) ) :.:.W . . ) ) . . .         ",
"      . W :.:.:.:.:.:.` ) ) ) ) ) ) ) ) ) ) ) ) ) ) ) ) ) ) ) ) ) ) ) ) ) ) ) ) ) :.:.W . . ) ) . . .         ",
"      . 5 9 9 9 9 9 9 T ) ) ) ) ) ) +.#.#.#.#.#.#.J 6 6 6 6 6 6 6 6 #.#.#.#.#.#.#.:.:.W . . 6 6 . . .         ",
"      . @ : : : : : : K ( ( ( ( ( ( X.$.$.$.$.$.$.f = = = = = = 3 3 $.$.$.$.$.$.$.$.$.U . . @ @ . . .         ",
"      . | Z.Z.Z.Z.Z.Z.k . . . . . . . . . . . . .  .<.<.<.<.<.<.H.U.. . . . . . . . . . . . ;.;.. . .         ",
"      . | Z.Z.Z.Z.Z.Z.k . . . . . . . . . . . . .  .<.<.<.<.<.<.H.U.. . . . . . . . . . . . ;.;.. . .         ",
"      . ~ [ [ [ [ [ [ A 2 2 2 z b b b b b b c 2 2 ] ............A.F.b b b b b b b b b w . . Q Q . .           ",
"        . . . . . . . N 3.3.3.9.f.f.f.f.f.f.p.3.3.3.3.3.3.3.3.3.3.3.f.f.f.f.f.f.f.f.f.4.. . . .               ",
"        . . . . . . . N 3.3.3.9.f.f.f.f.f.f.p.3.3.3.3.3.3.3.3.3.3.3.f.f.f.f.f.f.f.f.f.4.. . . .               ",
"                  . . N 3.3.3.9.f.f.x . . . . . . . . . . . . . . . . . . . . 4.f.f.f.4.. .                   ",
"                  . . n 1.1.3.9.f.f.x . . . . . . . . . . . . . . . . . X o o 4.f.f.f.4.. .                   ",
"                  . . . . . 3.3.3.3.< . .                           . . < 3.3.3.3.3.3.N . .                   ",
"                  . . . . . 3.3.3.3.< . .                           . . < 3.3.3.3.3.3.N . .                   ",
"                  . . 8 d d g.D n n , . .                           . . e g.g.g.g.n n l . .                   ",
"                  . . ! ;.;.;.! . .                                 . . a ;.;.;.;.. . .                       ",
"                  . . 7 a a a 0                                     . . ; a a a a                             ",
"                  . . . . . . .                                     . . . . . . .                             ",
"                  . . . . . . .                                     . . . . . . .                             "
};
