/* XPM */
static char *TerrainandBackWall_32x32_[] = {
/* columns rows colors chars-per-pixel */
"64 64 9 1 ",
"  c #33323D",
". c #6C5C68",
"X c #843353",
"o c #984B4B",
"O c #A97562",
"+ c #B69977",
"@ c #C3895D",
"# c #D8C17B",
"$ c #ECEAA5",
/* pixels */
"..                ..              ..        ..                ..",
"..                ..              ..        ..                ..",
"  ##$$##$$$$######  ####$$##$$$$##  ##$$$$##  ######$$$$##$$##  ",
"  ##$$##$$$$######  ####$$##$$$$##  ##$$$$##  ######$$$$##$$##  ",
"  ##            @@  ##          ##  ##    ##  @@        @@  ##  ",
"  ##            @@  ##          ##  ##    ##  @@        @@  ##  ",
"  ##  @@@@@@@@@@@@  @@@@@@@@@@@@@@  @@@@@@@@  @@  @@@@  @@  ##  ",
"  ##  @@@@@@@@@@@@  @@@@@@@@@@@@@@  @@@@@@@@  @@  @@@@  @@  ##  ",
"  $$  @@        @@                            @@  ##@@  @@  $$  ",
"  $$  @@        @@                            @@  ##@@  @@  $$  ",
"  $$  @@  @@@@  @@                oo          @@  ##    @@  $$  ",
"  $$  @@  @@@@  @@                oo          @@  ##    @@  $$  ",
"  ##  @@######  @@    XXooooXX  XXooooooXX    @@  ######@@  ##  ",
"  ##  @@######  @@    XXooooXX  XXooooooXX    @@  ######@@  ##  ",
"  ##            @@    oooooooo  ooOOoooooo    @@            ##  ",
"  ##            @@    oooooooo  ooOOoooooo    @@            ##  ",
"  ##@@@@@@@@@@@@@@    ooOOOOoo  ooOOOOOOoo    @@@@@@@@@@@@@@##  ",
"  ##@@@@@@@@@@@@@@    ooOOOOoo  ooOOOOOOoo    @@@@@@@@@@@@@@##  ",
"                      ooOOOOoo  ooOOOOOOoo                      ",
"                      ooOOOOoo  ooOOOOOOoo                      ",
"                    ooooOOOOoo  ooOOOOOOoooo                    ",
"                    ooooOOOOoo  ooOOOOOOoooo                    ",
"  XXooooooooooooooooooOOOOOOXX  XXOOOOOOOOooooooooooooooooooXX  ",
"  XXooooooooooooooooooOOOOOOXX  XXOOOOOOOOooooooooooooooooooXX  ",
"..                                                            ..",
"..                                                            ..",
"  ooOOOOOOOOOOOOOOOOOOOOOOOOOOOOOOOOOOOOOOOOOOOOOOOOOOOOOOOOoo  ",
"  ooOOOOOOOOOOOOOOOOOOOOOOOOOOOOOOOOOOOOOOOOOOOOOOOOOOOOOOOOoo  ",
"  OOOOOOOOOOOOOOOOOOOOOOOOOOOOOOOOOOOOOOOOOOOOOOOOOOOOOOOOOOOO  ",
"  OOOOOOOOOOOOOOOOOOOOOOOOOOOOOOOOOOOOOOOOOOOOOOOOOOOOOOOOOOOO  ",
"  OOOOOOOOOOOOOOOOOOOOOOOOOOOOOOOOOOOOOOOOOOOOOOOOOOOOOOOOOOOO  ",
"  OOOOOOOOOOOOOOOOOOOOOOOOOOOOOOOOOOOOOOOOOOOOOOOOOOOOOOOOOOOO  ",
"  OOOO++OOOOOOOOOOOOOOOOOOOOOOOOOOOOOOOO++++OOOOOOOOOOOOOOOOOO  ",
"  OOOO++OOOOOOOOOOOOOOOOOOOOOOOOOOOOOOOO++++OOOOOOOOOOOOOOOOOO  ",
"      OOooOOOOOOOOOOOOOOOOOOOOOOOOOOOOoo    OOooOOOOOOOOOOOOOO  ",
"      OOooOOOOOOOOOOOOOOOOOOOOOOOOOOOOoo    OOooOOOOOOOOOOOOOO  ",
"  OOOOOOOOOOOOOOOOOOOOOOOOOOOOOOOOOOOOOOOOOOOOOOOOOOOOOOOOOOOO  ",
"  OOOOOOOOOOOOOOOOOOOOOOOOOOOOOOOOOOOOOOOOOOOOOOOOOOOOOOOOOOOO  ",
"  ooOOOOOOOOOOOOOOOOOOOOOOOOOOOOOOOOOOOOOOOOOOOOOOOOOOOOOOOOoo  ",
"  ooOOOOOOOOOOOOOOOOOOOOOOOOOOOOOOOOOOOOOOOOOOOOOOOOOOOOOOOOoo  ",
"..                                                            ..",
"..                                                            ..",
"  OOOOOOOOOOOOOOOOOOOOOOOOOOXX  XXOOOOOOOOOOOOOOOOOOOOOOOOOOOO  ",
"  OOOOOOOOOOOOOOOOOOOOOOOOOOXX  XXOOOOOOOOOOOOOOOOOOOOOOOOOOOO  ",
"  OOOOOOOOOOOOOOOOOOOOOO++OOoo  ooOOOOOOOOOOOOOOOOOO++++OOOOOO  ",
"  OOOOOOOOOOOOOOOOOOOOOO++OOoo  ooOOOOOOOOOOOOOOOOOO++++OOOOOO  ",
"  OOOOOOOOOOOOOOOOOOOOOOooOO    ooOOOOOOOOOOOOOOoo    OOooOOOO  ",
"  OOOOOOOOOOOOOOOOOOOOOOooOO    ooOOOOOOOOOOOOOOoo    OOooOOOO  ",
"  OOOOOOOOOOOOOOOOOOOOOOOOOOoo  ooOOOOOOOOOOOOOOOOOOOOOOOOOOOO  ",
"  OOOOOOOOOOOOOOOOOOOOOOOOOOoo  ooOOOOOOOOOOOOOOOOOOOOOOOOOOOO  ",
"  ooooooooooooooooOOoooooooooo  ooooOOooooooooooooOOoooooooooo  ",
"  ooooooooooooooooOOoooooooooo  ooooOOooooooooooooOOoooooooooo  ",
"  ooooooooooooooooooooooooooXX  XXoooooooooooooooooooooooooooo  ",
"  ooooooooooooooooooooooooooXX  XXoooooooooooooooooooooooooooo  ",
"                  oo                oo            oo            ",
"                  oo                oo            oo            ",
"                                                                ",
"                                                                ",
"  @@@@@@@@@@@@@@@@  @@@@@@@@@@@@@@@@  @@@@@@@@@@@@  @@@@@@@@@@  ",
"  @@@@@@@@@@@@@@@@  @@@@@@@@@@@@@@@@  @@@@@@@@@@@@  @@@@@@@@@@  ",
"  ##$$##$$$$######  ######$$$$######  ##$$$$##$$##  ########$$  ",
"  ##$$##$$$$######  ######$$$$######  ##$$$$##$$##  ########$$  ",
"..                ..                ..              ..        ..",
"..                ..                ..              ..        .."
};
