/* XPM */
static char *Screenshotfrom2025_02_2716_53_05[] = {
/* columns rows colors chars-per-pixel */
"64 64 161 2 ",
"   c #33323D",
".  c #343442",
"X  c #3A3741",
"o  c #3C3944",
"O  c #373A4A",
"+  c #443D48",
"@  c #3B4354",
"#  c #39405E",
"$  c #3C4465",
"%  c #3F4D62",
"&  c #3C466A",
"*  c #3E4A74",
"=  c #4A434C",
"-  c #4D4953",
";  c #594B53",
":  c #594F5E",
">  c #5F5058",
",  c #605057",
"<  c #65525E",
"1  c #41486A",
"2  c #415066",
"3  c #43566F",
"4  c #5E5763",
"5  c #445776",
"6  c #685460",
"7  c #625D62",
"8  c #6E5967",
"9  c #745966",
"0  c #7D5B66",
"q  c #745D6A",
"w  c #7B5E6B",
"e  c #49627F",
"r  c #59667A",
"t  c #5A727E",
"y  c #696064",
"u  c #7C6467",
"i  c #76626E",
"p  c #7D636D",
"a  c #6E6672",
"s  c #746570",
"d  c #7A6872",
"f  c #87626F",
"g  c #88626F",
"h  c #856A6C",
"j  c #8A6D6F",
"k  c #806570",
"l  c #8C6470",
"z  c #8D6B73",
"x  c #916571",
"c  c #9C6670",
"v  c #916A73",
"b  c #9E6A74",
"n  c #8F7275",
"m  c #917276",
"M  c #987777",
"N  c #947479",
"B  c #9A777C",
"V  c #9C797D",
"C  c #A36A74",
"Z  c #A47377",
"A  c #A57379",
"S  c #AE717C",
"D  c #A27B7E",
"F  c #AC7F7E",
"G  c #B1767F",
"H  c #A9817F",
"J  c #445788",
"K  c #465D9E",
"L  c #485C98",
"P  c #4B6786",
"I  c #4E6E88",
"U  c #527582",
"Y  c #5C7480",
"T  c #6B718C",
"R  c #72738C",
"E  c #6A7D9F",
"W  c #567EAA",
"Q  c #4C6BBD",
"!  c #4E6EC5",
"~  c #4F70C6",
"^  c #557CCA",
"/  c #9E7D80",
"(  c #A07F80",
")  c #B47C82",
"_  c #7383A3",
"`  c #6C92A4",
"'  c #5883CC",
"]  c #5E91C0",
"[  c #5E90D1",
"{  c #649DD6",
"}  c #6EB3CF",
"|  c #73BBCB",
" . c #65A0D7",
".. c #6CA1D3",
"X. c #66A2D8",
"o. c #69A5D9",
"O. c #6AAADA",
"+. c #76ADDC",
"@. c #7AAEDD",
"#. c #6EB2DD",
"$. c #7DB0DE",
"%. c #79C8D8",
"&. c #75C1E1",
"*. c #7CCFE5",
"=. c #7FD6E7",
"-. c #9B8185",
";. c #A28586",
":. c #AE8584",
">. c #A38989",
",. c #A88C8B",
"<. c #B18583",
"1. c #B98386",
"2. c #B28986",
"3. c #BB8688",
"4. c #B78B88",
"5. c #BC8E8C",
"6. c #B7908C",
"7. c #BE908D",
"8. c #A79394",
"9. c #BF9593",
"0. c #B79699",
"q. c #9192A8",
"w. c #959BB4",
"e. c #A095A5",
"r. c #A599A7",
"t. c #AA98A4",
"y. c #C08F8D",
"u. c #C1928F",
"i. c #C39490",
"p. c #C69B95",
"a. c #C89E97",
"s. c #C39F98",
"d. c #C89F98",
"f. c #CAA39B",
"g. c #CDA99F",
"h. c #CEACA1",
"j. c #D0AFA4",
"k. c #D1B1A5",
"l. c #D8C1B5",
"z. c #DAC6BA",
"x. c #DCCABE",
"c. c #8CB5DC",
"v. c #93BADF",
"b. c #9FBEDB",
"n. c #8DBAE2",
"m. c #93BDE3",
"M. c #80D6E7",
"N. c #87D9E9",
"B. c #8EDAE9",
"V. c #93D7EA",
"C. c #9ADEEC",
"Z. c #AECEEA",
"A. c #9EE0ED",
"S. c #DBEAF6",
"D. c #DBF1F8",
"F. c #E1F5F9",
"G. c #EBF3FA",
"H. c #ECF9FB",
"J. c #F3F3F4",
"K. c #F4F9FC",
"L. c #FFFFFF",
/* pixels */
"S ) i.i.i.i.i.i.i.i.h.k.k.k.k.k.k.k.k.k.p.i.i.i.a.k.g.i.i.i.i.i.i.i.i.i.i.i.i.i.i.i.i.i.i.i.i.i.i.i.i.i.i.i.i.i.i.i.i.i.i.y.S c ",
"S ) i.i.i.i.i.i.i.i.h.j.j.j.j.j.j.j.j.j.p.i.i.i.p.j.g.i.i.i.i.i.i.i.i.i.i.i.i.i.i.i.i.i.i.i.i.i.i.i.i.i.i.i.i.i.i.i.i.i.i.y.S c ",
"i.i.i.i.i.i.i.i.i.i.i.i.i.i.i.i.i.i.i.i.i.i.i.i.i.i.i.i.i.i.i.i.i.i.i.i.i.i.i.i.i.i.i.i.i.i.i.i.i.i.i.i.i.i.i.i.i.i.i.i.i.i.i.:.",
"i.i.i.i.i.i.i.i.i.i.i.i.i.i.i.i.i.i.i.i.i.i.i.i.i.i.i.i.i.i.i.i.i.i.i.i.i.i.i.i.i.u.u.i.i.u.u.u.u.u.u.u.u.u.u.u.i.i.i.u.7.7.7.:.",
"i.i.i.i.i.i.i.i.i.i.i.i.i.i.i.i.i.i.i.i.i.i.i.i.i.i.i.i.i.i.i.i.i.i.i.i.i.i.i.i.i.) S 5.i.) S S S S S S S S S ) i.i.i.4.q q q < ",
"i.i.i.i.i.i.i.i.i.i.i.i.i.i.i.i.i.i.i.i.i.i.i.i.i.i.i.i.i.i.i.i.i.i.i.i.i.i.i.i.i.) S 5.i.) S S S S S S S S S ) i.i.i.4.q q q 6 ",
"i.i.i.i.i.i.i.i.i.i.i.i.i.i.i.i.i.i.i.i.i.i.i.i.i.i.i.i.i.i.i.i.i.i.i.i.i.i.i.i.i.u.u.g.k.p.u.f.j.j.j.h.j.a.u.u.i.i.i.i.u.5.) Z ",
"i.i.i.i.i.i.i.i.i.i.i.i.i.i.i.i.i.i.i.i.i.i.i.i.i.i.i.i.i.i.i.i.i.i.i.i.i.i.i.i.i.i.i.g.k.p.i.g.k.k.k.k.k.f.i.i.i.i.i.i.i.u.) Z ",
"i.i.i.i.i.i.i.i.i.i.i.i.i.i.i.i.i.i.i.i.i.i.i.i.i.i.i.i.i.i.i.i.i.i.i.i.i.i.i.i.i.i.i.p.d.i.i.p.d.d.d.d.d.p.i.i.i.i.i.i.i.u.5.F ",
"i.i.i.i.i.i.i.i.i.i.i.i.i.i.i.i.i.i.i.i.i.i.i.i.i.i.i.i.i.i.i.i.i.i.i.i.i.i.i.i.i.i.i.i.i.i.i.i.i.i.i.i.i.i.i.i.i.i.i.i.i.i.i.<.",
"i.i.i.i.i.i.i.i.i.i.i.i.i.i.i.i.i.i.i.i.i.i.i.i.i.i.i.i.i.i.i.i.i.i.i.i.i.i.i.i.i.i.i.i.i.i.i.i.i.i.i.i.i.i.i.i.i.i.i.i.i.i.i.:.",
"i.i.i.i.i.i.i.i.i.i.i.i.i.i.i.i.i.i.i.i.i.i.i.i.i.i.i.i.i.i.i.i.i.i.i.i.i.i.i.i.i.i.i.i.i.i.i.i.i.i.i.i.i.i.i.i.i.i.i.i.i.i.i.:.",
") 3.i.i.i.i.i.i.i.i.i.i.i.i.i.i.i.i.i.i.i.i.i.i.i.i.i.i.i.i.i.i.i.i.i.i.i.i.i.i.i.i.i.i.i.i.i.i.i.i.i.i.i.i.i.i.i.i.i.i.i.u.) A ",
"S ) i.i.i.i.i.i.i.i.i.i.i.i.i.i.i.i.i.i.i.i.i.i.i.i.i.i.i.i.i.i.i.i.i.i.i.i.i.i.i.i.i.i.i.i.i.i.i.i.i.i.i.i.i.i.i.i.i.i.i.y.S c ",
"l z N N N N N N N N N N N N N N N N N N N N N N N N N N N N N N N N N N N N N N N N N N N N N N N N N N N N N N N N N N N N l 0 ",
"8 8 8 8 8 8 8 8 8 8 8 8 8 8 8 8 8 8 8 8 8 8 8 8 8 8 8 8 8 8 8 8 8 8 8 8 8 8 8 8 8 8 8 8 8 8 8 8 8 8 8 8 8 8 8 8 8 8 8 8 8 8 8 < ",
">.>.>.>.>.;.V V V V V V V V V V V V V V V V V V V V V V M x g 8 q x v V V V V V V ;.>./ V ;.>.>.>.>.>.>.>.>.>.;.V V V V V V V z ",
"k.k.k.k.k.h.i.i.i.i.i.i.i.i.i.i.i.i.i.i.i.i.i.i.i.i.i.i.5.S b 8 w S G i.i.i.i.i.i.h.k.p.i.g.k.k.k.k.k.k.k.k.k.h.i.i.i.i.i.i.i.<.",
"f.f.f.f.f.d.i.i.i.i.i.i.i.i.i.i.i.i.i.i.i.i.i.i.i.i.i.i.y.1.D 8 p 1.3.i.i.i.i.i.i.d.f.p.i.a.f.f.f.f.f.f.f.f.f.d.i.i.i.i.i.i.i.<.",
"i.i.i.i.i.i.i.i.i.i.i.i.i.i.i.i.i.i.i.i.i.i.i.i.i.i.i.i.i.i.:.8 k i.i.i.i.i.i.i.i.i.i.i.i.i.i.i.i.i.i.i.i.i.i.i.i.i.i.i.i.i.i.:.",
"i.i.i.i.i.i.i.i.i.i.i.i.i.i.3.1.1.1.y.i.3.1.y.i.:.u u u u u d E _ w.w.w.q.u u u u 2.i.i.i.i.i.i.i.i.i.i.i.i.i.i.i.i.i.i.i.i.i.:.",
"i.i.i.i.i.i.i.i.i.i.i.i.i.i.G S S S 5.i.) S 5.i.N           % X.X.X.X.X.]         D i.i.i.i.i.i.i.i.i.i.i.i.i.i.i.i.i.i.i.i.i.:.",
"i.i.i.i.i.i.i.i.i.i.i.i.d.f.3.1.5.5.p.f.5.1.v u a P P P I U ` Z.Z.Z.Z.Z.b.P P P P s u 2.i.i.i.i.i.i.i.i.i.i.i.i.i.i.i.i.i.i.i.<.",
"i.i.i.i.i.i.i.i.i.i.i.i.h.k.p.i.h.k.k.k.p.i.,   3 X.X.X.#.=.A.L.L.L.L.L.G.X.X.X.X.%   V i.i.i.i.i.i.i.i.i.i.i.i.i.i.i.i.i.i.i.<.",
"i.i.i.i.i.i.i.i.i.i.i.i.g.h.p.i.g.h.h.h.6.:.4 @ e X.o.O.#.=.C.H.K.L.L.L.G.$.@.X.X.5 @ n :.7.i.i.i.i.i.i.i.i.i.i.i.i.i.i.i.i.i.<.",
"i.i.i.i.i.i.i.i.i.i.i.i.i.i.i.i.i.i.i.i.;   W X.X.X.#.=.=.=.=.=.C.L.L.L.L.L.G.X.X.X.X.2   M i.i.i.i.i.i.i.i.i.i.i.i.i.i.i.i.i.<.",
"i.i.i.i.i.i.i.i.i.i.i.i.i.i.i.i.i.i.4.2.: O W { { { O.*.*.*.*.*.V.G.G.G.G.G.S.O.O.+.@.r - -.0.9.i.i.i.i.i.i.i.i.i.i.i.i.i.i.i.<.",
"i.i.i.i.i.i.i.i.i.i.i.i.i.i.i.i.i.i.;   K ! ! ! ! ! ^ X.X.X.X.X.X.X.X.X.X.X.O.=.=.F.L.L.L.m.X.r.i.i.i.i.i.i.i.i.i.i.i.i.i.i.i.<.",
"i.i.i.i.i.i.i.i.i.i.i.i.i.i.i.i.i.i.;   K ! ! ! ! ! ^ X.X.X.X.X.X.X.X.X.X.X.O.=.=.F.L.L.L.m.X.r.i.i.i.i.i.i.i.i.i.i.i.i.i.i.i.<.",
"i.i.i.i.i.i.i.i.i.i.i.i.i.i.i.i.i.i.;   K ! ! ! ! ! ^ X.X.X.X.X.X.X.X.X.X.X.O.=.=.F.L.L.L.m.X.r.i.i.i.i.i.i.i.i.i.i.i.i.i.i.i.<.",
"5.5.5.5.5.5.5.5.5.5.5.5.5.5.5.5.5.5.;   K ! ! ! ! ! ^ X.X.X.X.X.X.X.X.X.X.X.O.=.=.F.L.L.L.m.X.e.5.5.5.5.5.5.5.5.5.5.5.5.5.5.5.H ",
"8 8 8 8 8 8 8 8 8 8 8 8 8 8 8 8 8 8 +   K ! ! ! ! ! ^ X.X.X.X.X.X.X.X.X.X.X.O.=.=.F.L.L.L.m.X.T 8 8 8 8 8 8 8 8 8 8 8 8 8 8 8 < ",
"q q q q q q q q q q q q q q q q i i - o L Q ! ! ! ! ^ { { X.X.X.X.X.X.X.X.o.O.=.=.F.L.K.K.v...R q q q q q q q q q q q q q q q < ",
"S ) i.i.i.i.i.i.h.k.p.i.h.k.k.k.z.x.x.x.7   K ! ! ! ! ! ^ X.X.X.X.X.X.X.O.=.=.=.=.F.L.m.X.r.i.i.i.i.i.i.i.i.i.i.i.i.i.i.u.5.S c ",
"S ) i.i.i.i.i.i.h.j.p.i.h.j.j.j.l.z.z.z.y o L Q Q ! ! ! ^ X.X.X.X.X.X.X.O.=.M.N.N.D.K.v...t.i.i.i.i.i.i.i.i.i.i.i.i.i.i.i.y.S c ",
"u.i.i.i.i.i.i.i.i.i.i.i.i.i.i.i.i.i.i.i.u.u.> . & ! ! ! ^ X.X.X.X.X.X.X.O.=.B.L.L.n.o.t.i.i.i.i.i.i.i.i.i.i.i.i.i.i.i.i.i.i.u.:.",
"i.i.i.i.i.i.i.i.i.i.i.i.i.i.i.i.i.i.i.i.i.i.< X 1 Q ! ! ^ {  .X.X.X.X.o.O.=.B.J.J.c...t.i.i.i.i.i.i.i.i.i.i.i.i.i.i.i.i.i.i.i.<.",
"i.i.i.i.i.i.i.i.i.i.i.i.i.i.i.i.i.i.i.i.i.i.7.7.m . & ! ! ~ ^ X.X.X.O.=.=.=.%.o o ( i.i.i.i.i.i.i.i.i.i.i.i.i.i.i.i.i.i.i.i.i.<.",
"i.i.i.i.i.i.i.i.i.i.i.i.i.i.i.i.i.i.i.i.i.i.i.i.N X 1 Q ! ! ^ X.X.X.O.=.=.%.| X X D i.i.i.i.i.i.i.i.i.i.i.i.i.i.i.i.i.i.i.i.u.:.",
"i.i.i.i.i.i.i.i.i.i.i.i.i.i.i.i.i.i.i.i.i.i.i.i.u.5.N . $ ! ^ X.X.X.O.=.| O = 5.5.u.i.i.i.i.i.i.i.i.i.i.i.i.i.i.i.i.i.i.i.u.1.A ",
"i.i.i.i.i.i.i.i.i.i.i.i.i.i.i.i.i.i.i.i.i.i.i.i.i.i.M   $ ! ^ X.X.X.O.=.|   + i.i.i.i.i.i.i.i.i.i.i.i.i.i.i.i.i.i.i.i.i.i.u.) Z ",
"i.i.i.i.i.i.i.i.i.i.i.i.i.i.i.i.i.i.i.i.i.i.i.i.i.i.2.j s * J ' [ &.} U t j m i.i.i.i.i.i.3.) ) ) 5.i.3.) 5.i.4.n N n m m z z w ",
"i.i.i.i.i.i.i.i.i.i.i.i.i.i.i.i.i.i.i.i.i.i.i.i.i.i.i.i.V   # ! ' =.|   = i.i.i.i.i.i.i.i.) S S S 3.i.) S 3.i.2.8 8 8 8 8 8 8 < ",
"i.i.i.i.i.i.i.i.i.i.i.i.i.i.i.i.i.i.i.i.i.i.i.i.i.i.i.i.2.h i * 5 U Y h m i.i.i.i.i.i.i.i.5.3.3.3.p.f.u.3.p.f.s.,.>.D D D D V m ",
"i.i.i.i.i.i.i.i.i.i.i.i.i.i.i.i.i.i.i.i.i.i.i.i.i.i.i.i.i.i.D       = i.i.i.i.i.i.i.i.i.i.i.i.i.i.g.k.d.i.f.k.k.k.h.i.i.i.i.i.<.",
"1.3.i.i.i.i.i.i.i.i.i.i.i.i.i.i.i.i.i.i.i.i.i.i.i.i.i.i.i.i.2.h h h n i.i.i.i.i.i.i.i.i.i.i.i.i.i.p.f.p.i.p.f.f.f.a.i.i.i.u.1.A ",
"S ) i.i.i.i.i.i.i.i.i.i.i.i.i.i.i.i.i.i.i.i.i.i.i.i.i.i.i.i.i.i.i.i.i.i.i.i.i.i.i.i.i.i.i.i.i.i.i.i.i.i.i.i.i.i.i.i.i.i.i.y.S c ",
"l z N N N N N N N N N N N N N N N N N N N N N N N N N N N N N N N N N N N N N N N N N N N N N N N N N N N N N N N N N N N N l 0 ",
"8 8 8 8 8 8 8 8 8 8 8 8 8 8 8 8 8 8 8 8 8 8 8 8 8 8 8 8 8 8 8 8 8 8 8 8 8 8 8 8 8 8 8 8 8 8 8 8 8 8 8 8 8 8 8 8 8 8 8 8 8 8 8 < ",
"B B B B B B B B B B B B B B B B B B B B B B B B B B B B N l f 8 q l v B B B B B B ;.;.V B -.;.;.;.;.;.,.8.8.8.8.8.8.;.;.;.;.B z ",
"i.i.i.i.i.i.i.i.i.i.i.i.i.i.i.i.i.i.i.i.i.i.i.i.i.i.i.i.5.S b 8 w S G i.i.i.i.i.i.h.k.p.i.g.k.k.k.k.k.l.x.x.x.x.x.z.k.k.k.h.i.<.",
"i.i.i.i.i.i.i.i.i.i.i.i.i.i.i.i.i.i.i.i.i.i.i.i.i.i.i.i.y.1.D 8 p 1.3.i.i.i.i.i.i.d.f.p.i.a.f.f.f.f.f.h.j.k.h.h.j.h.f.f.f.f.i.<.",
"i.i.i.i.i.i.i.i.i.i.i.i.i.i.i.i.i.i.i.i.i.i.i.i.i.i.i.i.i.i.:.8 k i.i.i.i.i.i.i.i.i.i.i.i.i.i.i.i.i.i.i.i.i.i.i.i.i.i.i.i.i.i.<.",
"i.i.i.i.i.i.i.i.3.1.1.1.1.1.u.i.i.i.3.1.y.i.i.i.4.B B B B B m 8 k i.i.i.i.i.i.i.i.i.i.i.i.i.i.i.i.i.i.i.i.i.i.i.i.i.i.i.i.i.i.<.",
"i.i.i.i.i.i.i.i.G S S S S S 5.i.i.i.) S 5.i.i.i.:.8 8 8 8 8 8 8 k i.i.i.i.i.i.i.i.i.i.i.i.i.i.i.i.i.i.i.i.i.i.i.i.i.i.i.i.i.i.<.",
"i.i.i.i.i.i.i.i.) G ) ) G G 5.i.i.i.1.) u.p.i.i.:.p p p p w q 8 k i.i.i.i.i.i.i.i.i.i.i.i.i.i.i.i.i.i.i.i.i.i.i.i.i.i.i.i.i.i.<.",
"i.i.i.i.i.i.i.i.i.i.h.k.p.i.i.i.i.i.g.k.k.k.p.i.p.k.g.i.y.) A 8 k i.i.i.i.i.i.i.i.i.i.i.i.i.i.i.i.i.i.i.i.i.i.i.i.i.i.i.i.i.i.:.",
"i.i.i.i.i.i.i.i.i.i.g.h.p.i.i.i.i.i.g.h.h.h.p.i.p.h.g.i.y.1.D 8 k i.i.i.i.i.i.i.i.i.i.i.i.i.i.i.i.i.i.i.i.i.i.i.i.i.i.i.i.i.i.:.",
"i.i.i.i.i.i.i.i.i.i.i.i.i.i.i.i.i.i.i.i.i.i.i.i.i.i.i.i.i.i.:.8 k i.i.i.i.i.i.i.i.i.i.i.i.i.i.i.i.i.i.i.i.i.i.i.i.i.i.i.i.i.i.<.",
"i.i.i.i.i.i.i.i.i.i.i.i.i.i.i.i.i.i.i.i.i.i.i.i.i.i.i.i.i.i.:.8 k i.i.i.i.i.i.i.i.i.i.i.i.i.i.i.i.i.i.i.i.i.i.i.i.i.i.i.i.i.i.<.",
"i.i.i.i.i.i.i.i.i.i.i.i.i.i.i.i.i.i.i.i.i.i.i.i.i.i.i.i.i.i.:.8 k i.i.i.i.i.i.i.i.i.i.i.i.i.i.i.i.i.i.i.i.i.i.i.i.i.i.i.i.i.i.<.",
"i.i.i.i.i.i.i.i.i.i.i.i.i.i.i.i.i.i.i.i.i.i.i.i.i.i.i.i.u.u.:.8 p u.u.i.i.i.i.i.i.i.i.i.i.i.i.i.i.i.i.i.i.i.i.i.i.i.i.i.i.i.i.<.",
"i.i.i.i.i.i.i.i.i.i.i.i.i.i.i.i.i.i.i.i.i.i.i.i.i.i.i.i.5.S b 8 w S G i.i.i.i.i.i.i.i.i.i.i.i.i.i.i.i.i.i.i.i.i.i.i.i.i.i.i.i.<.",
"4.4.4.4.4.4.4.4.4.4.4.4.4.4.4.4.4.4.4.4.4.4.4.4.4.4.4.4.<.C x 6 9 C A 4.4.4.4.4.4.4.4.4.4.4.4.4.4.4.4.4.4.4.4.4.4.4.4.4.4.4.4.D "
};
