/* XPM */
static char *Idle_01_rem[] = {
/* columns rows colors chars-per-pixel */
"64 64 249 2 ",
"   c #3A282D",
".  c #2A2935",
"X  c #2C2C3B",
"o  c #362B36",
"O  c #3A3437",
"+  c #3C343A",
"@  c #492D1C",
"#  c #462A29",
"$  c #502D25",
"%  c #47312C",
"&  c #5A372B",
"*  c #472D37",
"=  c #473639",
"-  c #573838",
";  c #533C3B",
":  c #62362C",
">  c #693A38",
",  c #713737",
"<  c #48413C",
"1  c #5B423A",
"2  c #69402E",
"3  c #684437",
"4  c #75453A",
"5  c #74483B",
"6  c #292A48",
"7  c #322A47",
"8  c #2B344B",
"9  c #343344",
"0  c #3C3444",
"q  c #3C3943",
"w  c #37344B",
"e  c #3C3B4C",
"r  c #312C51",
"t  c #393854",
"y  c #3C3B5C",
"u  c #3E3A63",
"i  c #433B43",
"p  c #493846",
"a  c #423C4B",
"s  c #553B44",
"d  c #402E52",
"f  c #423D54",
"g  c #473B58",
"h  c #693D42",
"j  c #493C64",
"k  c #3D404C",
"l  c #3D4259",
"z  c #4C4446",
"x  c #45424C",
"c  c #4C424D",
"v  c #534343",
"b  c #5B4443",
"n  c #53444B",
"m  c #584A49",
"M  c #5F524B",
"N  c #4C4455",
"B  c #43425C",
"V  c #4A4658",
"C  c #544554",
"Z  c #5C4C55",
"A  c #574959",
"S  c #524B5D",
"D  c #595459",
"F  c #694847",
"G  c #6F4F4E",
"H  c #734443",
"J  c #784945",
"K  c #77564B",
"L  c #634C58",
"P  c #695657",
"I  c #62545C",
"U  c #69555B",
"Y  c #775757",
"T  c #735B5C",
"R  c #6C625D",
"E  c #78635D",
"W  c #4A4866",
"Q  c #544C63",
"!  c #5A4D65",
"~  c #574969",
"^  c #554C6A",
"/  c #555464",
"(  c #575668",
")  c #5B546A",
"_  c #5C5B6C",
"`  c #4C4E71",
"'  c #584C75",
"]  c #595574",
"[  c #5C5B7B",
"{  c #654C64",
"}  c #645361",
"|  c #6A5664",
" . c #6D5A65",
".. c #675A6B",
"X. c #775B64",
"o. c #735C64",
"O. c #755E6A",
"+. c #635B74",
"@. c #64547B",
"#. c #675A79",
"$. c #5C6278",
"%. c #6E686C",
"&. c #7D6264",
"*. c #766668",
"=. c #7B636D",
"-. c #666275",
";. c #63647B",
":. c #6B6678",
">. c #786675",
",. c #7D6A75",
"<. c #797479",
"1. c #833D39",
"2. c #83443E",
"3. c #8D514C",
"4. c #855A58",
"5. c #925B5F",
"6. c #876459",
"7. c #97675A",
"8. c #99745C",
"9. c #AA675C",
"0. c #B5655A",
"q. c #846564",
"w. c #866964",
"e. c #83666C",
"r. c #836B6C",
"t. c #8B6C6B",
"y. c #946C64",
"u. c #996A66",
"i. c #8A726B",
"p. c #93726B",
"a. c #9A7369",
"s. c #826770",
"d. c #856973",
"f. c #8B6D73",
"g. c #856F7B",
"h. c #966A74",
"j. c #897676",
"k. c #947274",
"l. c #967877",
"z. c #9A767B",
"x. c #9E7A7E",
"c. c #A66A67",
"v. c #B06E6F",
"b. c #A6756A",
"n. c #A37D7D",
"m. c #A97978",
"M. c #B67A75",
"N. c #CA776B",
"B. c #C67973",
"V. c #8C827C",
"C. c #99827C",
"Z. c #A8837C",
"A. c #AA827E",
"S. c #B88D76",
"D. c #BA8678",
"F. c #C78679",
"G. c #CA9479",
"H. c #D7957C",
"J. c #D8A17D",
"K. c #5C5685",
"L. c #655582",
"P. c #675A87",
"I. c #695D91",
"U. c #646382",
"Y. c #6A6383",
"T. c #686789",
"R. c #6D6D8B",
"E. c #776A89",
"W. c #746E8B",
"Q. c #6F7283",
"!. c #6F748A",
"~. c #747384",
"^. c #75738C",
"/. c #7A748C",
"(. c #7A7A89",
"). c #6C6494",
"_. c #756B98",
"`. c #6E7495",
"'. c #747393",
"]. c #7A7797",
"[. c #76739D",
"{. c #7C7C9C",
"}. c #796CA2",
"|. c #7A75A3",
" X c #757BA3",
".X c #7A7BA4",
"XX c #7C7CAA",
"oX c #857786",
"OX c #997E83",
"+X c #856E96",
"@X c #827599",
"#X c #A27D81",
"$X c #AE7E82",
"%X c #B57D83",
"&X c #837AA2",
"*X c #8378A9",
"=X c #7981A7",
"-X c #988586",
";X c #90888F",
":X c #A58182",
">X c #AC8484",
",X c #AC8B83",
"<X c #A78A88",
"1X c #B18684",
"2X c #B98785",
"3X c #B48A86",
"4X c #B58A89",
"5X c #BB8D8B",
"6X c #A9928C",
"7X c #B59387",
"8X c #BF918E",
"9X c #A78F93",
"0X c #A79796",
"qX c #B59893",
"wX c #ACA29F",
"eX c #B5A299",
"rX c #8281A5",
"tX c #9D9AA3",
"yX c #B6ACAD",
"uX c #C48D89",
"iX c #CC9987",
"pX c #C2938F",
"aX c #D79686",
"sX c #D7948F",
"dX c #C49590",
"fX c #C59A94",
"gX c #CA9994",
"hX c #C99A94",
"jX c #E19A95",
"kX c #CCA287",
"lX c #D6A887",
"zX c #C7A59A",
"xX c #CCA49C",
"cX c #D1A59C",
"vX c #E7AA88",
"bX c #EAB292",
"nX c #C5ABA6",
"mX c #CCADA2",
"MX c #D2ABA2",
"NX c #C9B2AB",
"BX c #D5B7AB",
"VX c #CDB5B5",
"CX c #D6B9B3",
"ZX c #D5C0B7",
"AX c #E4C6BA",
"SX c #B9BEC0",
"DX c #D4D1D1",
"FX c #E4CEC9",
"GX c #E5DCE1",
/* pixels */
"| | | | | | | | | | | | | | | |  .| Q g r r 7 7 r r 8 6 6 6 8 8 8 8 8 6 6 6 r r r r r r t A | o. .| | | | | | | | | | | | | | | ",
"=.=.=.=.=.=.=.=.=.=.=.=.,.d.,.>. .} Q g d t t d g g y t t t l l l l y y y y y u y y y y B Q }  .O.=.=.=.=.=.=.=.=.=.=.=.=.=.=.=.",
"x.x.x.x.#X<X<X<X:X#X:X<X6XqXqX-X..V g W ~ ~ ~ ^ +.#.;.[ $.$.$.$.$.;.;.;.U.#.[ [ U.P.P.[ ] Q S } f.#X#X#Xx.x.x.x.x.x.x.x.x.x.x.x.",
"8X8X8X8XdXzXxXzXfXdXfXzXmXBXNX9X..g g ' @.@.#.Y.E.^.^.^.!.!.!.!.~.^./.].].].^.^.'.].].].R.) V } k.3X8X8X8X8X8X8X8X8X8X8X8X8X8X8X",
"dXdXdXdXfXxXxXxXgXfXgXxXzXqX-X<._ W ~ @.#.E.E.Y.+._ ( _ _ ( ( ( ( ( _ _ +._ _ _ _ ;.W.].].Y._ ..=.f.n.5XdXgXdXdXdXdXdXdXdXdXdXdX",
"dXdXdXdXdXdXdXdXdXdXdXdX,Xr.D A / ) +.#.:.E.oX:.S e e e k k e q q q q a a a x x x V ..~.@X].^.-.S C &.>XdXdXdXdXdXdXdXdXdXdXdXdX",
"dXdXdXdXpXpXpXpXpXpXdXpXA.E z x S +.#.#.#.#.:...} L L I I I I L Z Z L L L U U U U U ..:.Q././.-.V a U :XdXdXdXdXdXdXdXdXdXdXdXdX",
"dXdXdXdXpXpXpXpXpXpXdXpXA.E z x Q +.#.+.) Q S | d.n.:XA.A.A.A.A.n.n.n.n.n.A.A.>X>Xx.e.} ) :.~.-.V a U :XdXdXdXdXdXdXdXdXdXdXdXdX",
"dXdXdXdXdXdXdXdXdXdXdXdXA.E z x ! #.#.@.~ g d L z.8X8X>X:Xn.A.1X5XpX5X1XA.A.A.3XpX5Xf.Z V +.~.-.V a o.:XpXpX5X5XpXpX5X4X>X>X>X>X",
"dXdXdXdXdXdXdXdXdXdXdXdX>XX.z a ! #.#.L.' g d L z.5Xn.=.U L U e.>X5Xn.q.T P T i.1X4Xf.Z V -./.:.S c X.>XpX2X%X2X5X5X>Xk.d.d.d.d.",
"dXdXdXdXdXdXdXdXdXdXdXdX>XX.c g ~ @.P.P.@.j d L z.3Xf.C 9 X + L x.3Xk.L = = < P n.4Xf.Z S -./.Q.S C X.>XpX2X%X%XpX8X:Xf.=.=.=.=.",
"dXdXdXdXdXdXdXdXdXdXdXdX>XX.n g ~ @.L.L.@.j d { n.4Xf.a X . o L z.3Xp.m + O = P n.4Xk.Z S -./.:.S c &.,XgXdX2X5XfXzXqX<X-Xx.x.z.",
"dXdXdXdXdXdXdXdXdXdXdXdX>X&.n g ~ @.L.L.' j g { z.>Xd.C 0 9 a U x.3Xk.L z i z T n.1Xk.} Q :./.:.V a *.qXxXxXdXfXzXmXmXmXzXfX8X5X",
"dXdXdXdXdXdXdXdXdXdXgXdX>X&.C N ~ @.L.L.@.' ' #.>.d.e.O.o. .X.f.>X5XA.t.&.&.&.e.i.k.,...+.W.].Y.Q N =.7XxXxXfXgXxXxXMXMXxXgXgXgX",
"dXdXdXdXdXdXdXdXdXdXdXdX>X&.C N ~ @.@.L.P.E.E.#.~ A O.z.>X1X>X3X8XpX5X3X1X3X>Xk.&.I ..Y.'.{.{.R.^ S =.>XfXgXdXdXdXfXfXfXfXdXdXdX",
">X>X>X>X>X>X>X>X>X>X>X>Xl.o.n N ^ @.L.L.P._.@XP.j d { z.1X4X>X>X>X>X>X>X>X4X>Xf.I V ( W.{.rX{.R.^ V  .l.>X>X>X>X>X>X>X>X>X>X>X>X",
"s.s.d.d.d.d.d.d.d.d.d.d.O.Z a N ^ @.L.L.P._.@XP.j w g O.d.g.,.,.s.s.s.,.,.g.d. .C f ^ R.{.rX XT.W f A O.s.d.d.d.d.d.d.d.d.s.s.s.",
"=.=.o.| I I } } } }  .=. .C a g ^ @.L.L.P._.@XE.' g Q ..O.-.-.-.+.O.-.-.-.-...} S W [ '. X=X XT.W t S ..=.=. .| } } } } | =.=.,.",
":Xz.=.C a a a e a N  .k.f.I a f ^ @.L.L.P._.[._.T.P.Y.W.^.R.T.T.R.^.!.R.R.R.E.Y.U.T.R.[..X=X XU.W B ..OX-Xg...S N x a c I j.<XqX",
"5X>Xe.C q 9 9 8 8 k *.:Xn.o.a y ^ L.L.L.I.).[.|.&X&X&X&X.X{.'.`.{.=X=X X{.{.{.{.{..X.X.X.X.X XU.W W ,.qXqXj._ V x x e x I l.qXzX",
"d.e.O.) / / / B e e o.n.m.o.a y ` P.P.P.I._.|.*X&X.X.X.X.X X X X=X=X=X X X.XXX*X*XrXXX.X.X.X XT.W W ,.qXqXj.! S / _ _ _ ..,.j.j.",
"a C } :.^./.!.$.l k | h.h.U e t ` L.P.P.I._.*X*X|.[.[.[. X.X=X=X=X=X X X XXX*X*X*X*XXX.X X.X XT.` W >.<X>X=.S Q ;.^.(.(.:./ x q ",
"7 e ^ W.].^.U.` l w C o.o.C w w W ' K.K.I.)._._._._._.[..X.X=X=XXXXX X XXXXX*X*X}.}.|.|.|.[.`.U.` W ..d.s.D f B ( :.(.(.<.S X . ",
"7 w ^ E.^.[ W t 8 8 e a a e 9 r t u ` K.P.I.I.).).)._.|..X.X.X.X.XXXXXXXXX*X*X}.).I.).|..X`.U.[ ] ` ^ Q V e 9 9 t V $.~.<.S q X ",
"7 w ^ E.W.[ W y l l l l l l B B j W ' K.I.).).).).)._.|.&X&X.X.X.X.X.X*X*X*X*X}.).I.).|.{.'.T.U.U.$.] W B B B y y V _ ~.:./ q X ",
"7 t ^ E.].^.T.U.$.$.;.;.;.;.;.;.T.).)._.}.[._._._.'.].@X&X&X&X&X&X&X&X&X&X*X*X*X+X+X@X&X@X].'.'.'.^.W.T.Y.:.:.;.;.;.~.(.<./ q X ",
"g N ) :.^.^.^.^.!.Q.~.~.~.~.~.^.'.[.[.[.[.[._.'.W.W.E././.+X/././././.E.E.+X+X+X+X+X+X/././.^.^.^.^.^.^.^././.^.~.~.~.~.:./ c a ",
"d.=. .! Q / ( ( ( ( ( ( / D / / _ ] ] ] ] ] ] _ ) ! ! { { { { { { { L L L { { { { { { { ) ) ) ) ) ) ) ) ) ) ( ( ( ( / / (  .=.r.",
"8X>Xr.C q q e x x x i + O + + + w w w w w w e e 0 0 i * * * - - - - = = - - - s s p p p i 0 0 0 0 0 0 9 9 0 a a a a a a Z t.>X8X",
"gXpXn.&.U U  . .o.U m =       o X X 6 6 X X . X o o     # - F F F F F F F F F F F F ; *   o o o o o o o i n U T T T U T e.n.pXgX",
"dXpX5X1X>X>X>X>X>Xn.&.< O O = + o X 9 9 9 X X o O * # # - K y.a.a.a.a.u.u.u.u.u.a.w.G -     o o o o o + n &.n.>X>X>X>X>X3X5XpXdX",
">X>X>X>X>X>X>X>X1Xn.&.v = v Z n q 9 V -.<.:.%.D z = % - J u.M.D.D.D.D.D.D.D.D.D.D.A.y.K b = = = s n p = n q.n.4X1X>X>X>X>X>X>X>X",
"s.s.s.d.d.d.d.d.d.=.L ; ; T d.%.c x <.yXDXDXDXtXR ; 1 4.u.M.F.aXaXG.G.G.G.G.G.G.G.G.S.A.p.G ; b &.r.U v s L =.d.d.d.d.d.d.s.s.s.",
"=.=.=.=.=.=.=.=.=.=.L ; b =.-Xj.D V (.SXGXGXDXwXR ; F y.D.F.aXaXaXaXH.H.J.J.J.J.J.kXkXzX,XY - F l.6Xi.b = Z X.=.=.=.=.=.=.=.=.=.",
"x.x.x.x.x.x.x.:X<X-X&.1 b r.-Xj.D x D <.;X;X;X%.< % F a.D.iXaXaXaXH.vXvXvXvXvXvXJ.J.lXxXS.K & G <XeXl.b ; Y k.#X#Xx.x.x.x.x.x.x.",
"8X8X8X8X8X8X8XfXxXqXp.F 1 q.-Xj.D + + x x x + O % ; G y.M.uXiXaXaXaXvXbXbXbXbXvXlXG.G.S.Z.K 3 E qXnXC.b ; 6.1XdXpX8X8X8X8X8X8X8X",
"dXdXdXdXdXdXdXgXcXfXp.3 1 q.-Xj.M = D j.<.D + z ,.-Xj.4.4.b.2XiXaXaXvXbXbXbXbXlXlXkXS.7.6.6.p.,XnXNXC.b ; 6.2XpXpXpXpXdXdXdXdXdX",
"dXdXdXdXdXdXdXdXfX4Xw.3 1 w.<Xj.M v V.ZXVXj.z R yXDX0XY h 4.m.2XpXiXiXiXkXkXkXkXkXS.8.5 5 a.zXCXZXNXl.b 1 4.1X5X5X5X5XpXdXdXdXdX",
"dXpXpXpXdXdXdX5XA.a.K & 1 6.,XC.E R V.yXwX*.i I 0XyX9XX.F G 4.q.u.b.b.a.8.8.8.8.8.8.6.K 6.7XBXAXFXNXC.m 1 w.5XfXdX5X5XpXdXdXdXdX",
"dXdXpXpXdXdXpXA.y.K & $ & 6.A.6XC.j.i.*.P v O i D *.j.j.t.Y > - > > 3 2 2 2 : & & 3 6.A.zXBXCXAXFXVXC.m 1 i.fXxXgXpXpXpXdXdXdXdX",
"pXdXpXdXpX5X1Xa.4.J 3 : 3 4.a.A.7X<Xi.P v v n n m L j.9X9Xp.G F F 5 5 5 5 5 3 3 3 K a.zXAXAXCXBXnXqXw.1 1 E ,XqXdXdXdXdXpXpXdXdX",
"pXdXdXdX5Xm.y.7.7.7.7.3.3.J J 4.>XqX<Xj.s.,.j.j.j.j.9XnXNXzX7X3X3X3X3X7X7X7X7X,XA.7XzXBXAXAXAXzXl.Y 1 % % 1 G t.>XdXgXdXpXpXpXdX",
"dXpX8X5XA.u.6.7.b.M.D.M.9.3., J u.>X<XOXOX-X-X-X-X-X0XeXnXmXmXcXcXcXcXMXmXMXmXmXmXmXmXxXmXBXmX,XY - # # # % ; G p.1X8XpXdXdXdXdX",
"dX5XA.p.w.p.a.m.D.F.uXuXB.9.3.3.3.4.4.Y Y T T T T T E w.y.y.y.y.u.u.u.a.a.y.p.p.p.p.p.y.y.p.y.6.K F - % - b P T Y q.l.3XdXdXdXdX",
"dX5Xk.P P t.3XpXiXiXsXsXaXB.v.3., : : : : & & & & & & & : & : : : : : : : & & & & : > : : : : J 6.y.K - 1 Y i.&.b ; Y A.dXdXdXdX",
"gX5Xw.m m i.qXxXcXjXjXjXsXaXB.0.3.1.1.2.2.4 4 4 4 4 5 4 4 4 4 4 4 4 H H H H H H 4 4 4 4 4 2 4 3.b.A.6.3 3 6.l.q.b = Y A.dXgXdXdX",
"gX3Xw.v z ,.qXnXxXcXjXsXsXF.B.0.0.0.0.0.0.0.9.9.9.9.9.c.c.c.c.c.c.c.c.c.c.c.c.c.c.c.c.9.7.7.7.b.S.S.7.2 & K p.q.b - Y A.dXdXdXdX",
">Xx.E < < P j.-X:Xn.M.v.v.M.B.N.N.N.N.N.N.N.N.F.F.F.F.F.M.v.c.7.7.u.u.u.u.u.u.c.M.2XD.D.D.D.D.G.iXiX8.2 & 3 Y G ; = G k.>X>X>X>X",
"d.=.L < O < b F F H h , 3.9.v.B.B.N.N.N.N.F.aXaXaXaXaXiXD.7.4 , , , > , , > h 4.m.pXgXiXiXiXiXiXcXpXy.3 $ & - - % = b X.s.d.s.s.",
"=.X.Z < O = v b F h > , J 3.c.c.v.v.c.9.c.M.F.F.D.D.D.D.b.5.J > > > 4 H H H G 4.h.>X1X2X2X2X2X3X3XA.4.- % % ; = % * n  .=.=.=.=.",
"#Xk.T < < R l.<X<X>X>X>Xm.5.J H H H H H H G Y Y Y Y K K 6.a.A.3X1X,X,X,XqXeXyX9Xg.X.U Y Y Y Y Y T U s * = U ,. .p = L t.x.#Xx.x.",
"dX3Xt.M M j.eXVXCXCXCXVXqXe.s * * * = p p p i i i = = = F C.nXZXCXCXCXCXFXGXGXyX<.a p p p p p p p p * o p >.;XoXD v T n.pXdX8X8X",
"gX8Xn.t.q.i.x.-XOXOXOXOXk.X.Z s p a N Q / / / / / D n v P i.6XeXeXeXeXeXwXyXyXtX~.) ! ! ! ! ! ! ! Q g 0 0 Q :.>.=.&.l.4XdXgXdXdX",
"dXpX8X4Xn.q.G b s s s s s L } ..) _ ;.!.^.^.!.!.!.Q.%.I I R R *.*.*.*.*.*.%.%.:.~.~./.^.W.W.W././.W.] f 9 9 a I k.1X8XpXdXdXdXdX",
"pXdXdXfX3Xp.Y G F F ; * i V ..#.+.;.R.{.{.`.T.;.$.$.( D C m m m m m m m m c c D ..:.;.U.T.'.{.&XrX].[ B w a Z =.>XdXgXdXpXpXpXdX",
"pXdXdXdX8X3XA.A.m.k.T p 0 N ] #.[ P.R.{.'.[ W l l k e q q q i = + O + = = = i i a f f f W U.].rXrX'.[ l g  .z.1X5XdXdXdXpXpXdXdX",
"dXdXpXpXdXdXdXgXgX4Xe.c 9 f ~ ] [ P.).'.T.` w w a N n n n n c p = + = = i i i i + o 7 w B [ R.].'.R.] y V s.5XgXdXpXpXpXdXdXdXdX",
"dXpXpXpXdXdXdXgXgX5Xr.c 7 7 t W ' @.Y.Y.[ B w g o.f.k.k.t.e.O.U Z C C C Z Z Z c 0 o 0 V Q _ ;.Y.Y.;.W t N r.5XgXdXpXpXpXdXdXdXdX",
"dXdXdXdXdXdXdXdXdX4Xe.p X 9 f Q +.Y.#.] Q g g | z.8XdXpX4X>Xl.d.=.=.O.O.O.=.O.L p 0 N ..:.:.-.-.+._ S V D k.4XfXfXdXdXdXpXpXpXdX",
"dXdXdXdXdXdXdXdXdX4Xe.c 0 S :./.@X@X:.Q N I =.z.3XdXgXgX8X>Xx.z.x.x.x.x.x.#Xz.&.n i Z ,.-X;XoX<.*. .*.g.x.<X8XfXxXxXfXdXpXpXpXdX",
"dXdXdXdXdXdXdXdXdX3Xe.n p ..;XtXtX;X>.C C e.>X8XpXpXdXdX5X:Xz.x.>X5X5X5X8XdX5Xk.L s U j.<X6X6XC.q.&.l.qXzXfXdXfXxXmXxXfXpXpXpXdX",
"dXdXdXdXdXdXdXdXdX3Xq.s = I ,.g.g.,.=.X.e.n.pXgXdXdXdXdX5X#Xk.z.$X2XpXpXdXgXpX>Xt.T T q.w.i.i.i.p.l.,XzXxXgXdXfXxXxXgXdXpXpXpXdX",
"dXdXdXdXdXdXdXdXdX3Xq.;   = n n s n X.z.3X5XpXdXdXdXdXdX4Xn.h.h.m.m.2XpXdXdXpX5X1Xz.6.F 1 1 3 K a.3X8XdXfXdXdXdXdXfXdXdXpXpXpXdX",
"dXdXdXdXdXdXdXdXdX3Xq.;     * *   = Y >XgXgXdXpXpXdXdXdX4Xn.f.h.h.m.%X5XdXdXpXdXpX1X6.1 @ @ & K b.pXfXpXpXpXpXpXpXpXpXpXdXdXdXdX"
};
