/* XPM */
static char *Screenshotfrom2025_02_2714_19_57[] = {
/* columns rows colors chars-per-pixel */
"64 63 6 1 ",
"  c #6E5967",
". c #AD707B",
"X c #B77F83",
"o c #C39490",
"O c #D1B1A5",
"+ c #DCCABE",
/* pixels */
"                                                                ",
"                                                                ",
" ..ooooooOOooOOOO++++++OOooOOOOoooooooooooooooooooooooooooooo.  ",
" ..ooooooOOooOOOO++++++OOooOOOOoooooooooooooooooooooooooooooo.  ",
" ooooooooooooooooooooooooooooooooooooooooooooooooooooooooooooo  ",
" ooooooooooooooooooooooooooooooooooooooooooooooooooooooooooooo  ",
" ooooooooooooooooooooooooooooooooooooooooooooooooooooooooooooo  ",
" ooooooooooooooooooooooooooooooooooooooooooooooooooooooooooooo  ",
" ooooooooooooooooooooooooooooooooooooooooooooooooooooooooooooX  ",
" oooooooooooooooooooooooooooooooooooooooooooo....oo..oo         ",
" oooooooooooooooooooooooooooooooooooooooooooo....oo..oo         ",
" ooooooooooooooooooooooooooooooooooooooooooooooooOOooOOOOooooo  ",
" ooooooooooooooooooooooooooooooooooooooooooooooooOOooOOOOooooo  ",
" ooooooooooooooooooooooooooooooooooooooooooooooooOOooOOOOooooo  ",
" ..oooooooooooooooooooooooooooooooooooooooooooooooooooooooooo.  ",
" ..oooooooooooooooooooooooooooooooooooooooooooooooooooooooooo.  ",
"                                                                ",
"ooooooooooooooooooooooooooooo..  ..ooooooOOooOOOOOO++++++OOOOooo",
"ooooooooooooooooooooooooooooo..  ..ooooooOOooOOOOOO++++++OOOOooo",
"ooooooooooooooooooooooooooooooo  ooooooooooooooooooooooooooooooo",
"ooooooooooooooooooooooooooooooo  ooooooooooooooooooooooooooooooo",
"ooooooooo......oooo..oooo        ooooooooooooooooooooooooooooooo",
"ooooooooo......oooo..oooo        ooooooooooooooooooooooooooooooo",
"ooooooooo......oooo..oooo        ooooooooooooooooooooooooooooooo",
"oooooooooooOOooooooOOOOooOOooXX  ooooooooooooooooooooooooooooooo",
"ooooooooooooooooooooooooooooooo  ooooooooooooooooooooooooooooooo",
"ooooooooooooooooooooooooooooooo  ooooooooooooooooooooooooooooooo",
"ooooooooooooooooooooooooooooooo  ooooooooooooooooooooooooooooooo",
"ooooooooooooooooooooooooooooooo  ooooooooooooooooooooooooooooooo",
"ooooooooooooooooooooooooooooo..  ..ooooooooooooooooooooooooooooo",
"ooooooooooooooooooooooooooooo..  ..ooooooooooooooooooooooooooooo",
"                                                                ",
"                                                                ",
" ..ooooooooOOOO++++OOooooOOoooooooooooooooooooooooooooooooooo.  ",
" ..ooooooooOOOO++++OOooooOOoooooooooooooooooooooooooooooooooo.  ",
" ooooooooooooooooooooooooooooooooooooooooooooooooooooooooooooo  ",
" ooooooooooooooooooooooooooooooooooooooooooooooooooooooooooooo  ",
" oooooooooooooooooooooooooooooooooooooooo..oo..........oooo     ",
" oooooooooooooooooooooooooooooooooooooooo..oo..........oooo     ",
" ooooooooooooooooooooooooooooooooooooooooooOOooOOOOOOooooooooX  ",
" ooooooooooooooooooooooooooooooooooooooooooOOooOOOOOOooooooooX  ",
" ooooooooooooooooooooooooooooooooooooooooooooooooooooooooooooo  ",
" ooooooooooooooooooooooooooooooooooooooooooooooooooooooooooooo  ",
" ooooooooooooooooooooooooooooooooooooooooooooooooooooooooooooo  ",
" ooooooooooooooooooooooooooooooooooooooooooooooooooooooooooooo  ",
" ..oooooooooooooooooooooooooooooooooooooooooooooooooooooooooo.  ",
" ..oooooooooooooooooooooooooooooooooooooooooooooooooooooooooo.  ",
"                                                                ",
"                                                                ",
"oOOOOoooooooooooooooooooooooo..  ..ooooooOOooOO++++++OOooooooooo",
"oOOOOoooooooooooooooooooooooo..  ..ooooooOOooOO++++++OOooooooooo",
"ooooooooooooooooooooooooooooooo  ooooooooooooooooooooooooooooooo",
"ooooooooooooooooooooooooooooooo  ooooooooooooooooooooooooooooooo",
"ooooooooooooooo....oo..oooo      ooooooooooooooooooooooooooooooo",
"ooooooooooooooo....oo..oooo      ooooooooooooooooooooooooooooooo",
"oooooooooooooooooOOOOooooooooXX  XXooooooooooooooooooooooooooooo",
"oooooooooooooooooOOOOooooooooXX  XXooooooooooooooooooooooooooooo",
"ooooooooooooooooooooooooooooooo          oo....oo..ooooooooooooo",
"ooooooooooooooooooooooooooooooo          oo....oo..ooooooooooooo",
"ooooooooooooooooooooooooooooooo  ooooooooooooOOOOOOooOOooooooooo",
"ooooooooooooooooooooooooooooooo  ooooooooooooOOOOOOooOOooooooooo",
"ooooooooooooooooooooooooooooo..  ..ooooooooooooooooooooooooooooo",
"ooooooooooooooooooooooooooooo..  ..ooooooooooooooooooooooooooooo"
};
