/* XPM */
static char *Screenshotfrom2025_02_2717_00_08[] = {
/* columns rows colors chars-per-pixel */
"64 64 139 2 ",
"   c #51434D",
".  c #58464F",
"X  c #5C4750",
"o  c #5B4851",
"O  c #614A52",
"+  c #7B535B",
"@  c #735B5D",
"#  c #7E585E",
"$  c #665763",
"%  c #6A5663",
"&  c #6E5A66",
"*  c #6D5C68",
"=  c #715D66",
"-  c #795E60",
";  c #725E6A",
":  c #7A5E6B",
">  c #7C6162",
",  c #74616B",
"<  c #7B636C",
"1  c #7D696F",
"2  c #736677",
"3  c #7D6670",
"4  c #7F6B76",
"5  c #7E6C7B",
"6  c #815C5F",
"7  c #865C6C",
"8  c #8A5E6D",
"9  c #816462",
"0  c #886766",
"q  c #896967",
"w  c #82656E",
"e  c #8B636E",
"r  c #85696F",
"t  c #896A68",
"y  c #93636F",
"u  c #9B656E",
"i  c #90686F",
"p  c #826670",
"a  c #8C6670",
"s  c #846C71",
"d  c #8C6B71",
"f  c #816D7C",
"g  c #956570",
"h  c #996771",
"j  c #936D72",
"k  c #9D6972",
"l  c #8B7275",
"z  c #8B7378",
"x  c #947274",
"c  c #9C7375",
"v  c #937977",
"b  c #9C7977",
"n  c #94767A",
"m  c #9D767B",
"M  c #95797B",
"N  c #9B7B7B",
"B  c #A26C74",
"V  c #A27477",
"C  c #A97477",
"Z  c #A47877",
"A  c #A47678",
"S  c #AB7679",
"D  c #A47A79",
"F  c #AD7A7A",
"G  c #B0757E",
"H  c #B27E7C",
"J  c #9E817B",
"K  c #A5867D",
"L  c #AB857D",
"P  c #A7887F",
"I  c #AA887F",
"U  c #B6857E",
"Y  c #B8877F",
"T  c #B5887F",
"R  c #7A7A94",
"E  c #857A8F",
"W  c #A47F80",
"Q  c #B57C82",
"!  c #9C8484",
"~  c #83869C",
"^  c #A58182",
"/  c #AB8483",
"(  c #AC8B82",
")  c #A68B8A",
"_  c #A98C8A",
"`  c #B58682",
"'  c #B48A83",
"]  c #B98B81",
"[  c #BB8789",
"{  c #B58A88",
"}  c #BB8D8A",
"|  c #AF938F",
" . c #B29183",
".. c #B79283",
"X. c #B39084",
"o. c #B59384",
"O. c #B79484",
"+. c #B89083",
"@. c #B89384",
"#. c #BD9184",
"$. c #BA9786",
"%. c #BE9586",
"&. c #BC9987",
"*. c #BD9987",
"=. c #BE908D",
"-. c #BE918D",
";. c #BE9A88",
":. c #AF9491",
">. c #B49793",
",. c #BF9791",
"<. c #BF9F96",
"1. c #BFA198",
"2. c #8A91A4",
"3. c #9999A9",
"4. c #A29FAA",
"5. c #94A0B5",
"6. c #9FA2B4",
"7. c #A6A2AC",
"8. c #B3B2BC",
"9. c #C19787",
"0. c #C19987",
"q. c #C0928E",
"w. c #C2938F",
"e. c #C29B88",
"r. c #C39D89",
"t. c #C59E8A",
"y. c #C59F8A",
"u. c #C39490",
"i. c #C79D97",
"p. c #C3A299",
"a. c #C3A69C",
"s. c #CAA39B",
"d. c #CDA99F",
"f. c #CCADA1",
"g. c #D1B1A5",
"h. c #9BACC2",
"j. c #B9B7C0",
"k. c #BCBBC4",
"l. c #C4BEC3",
/* pixels */
"S S u.u.u.u.u.u.u.u.d.g.g.g.g.g.! 4 , * N  .*.t.t.r.r.t.t.r.r.t.t.r.r.t.t.r.r.t.t.t.r.s , * * l n } u.u.u.u.u.u.u.u.u.u.u.[ S + ",
"Q Q u.u.u.u.u.u.u.u.s.d.p.<.1.1.! z l s K O.*.t.r.e.e.e.e.e.e.e.e.0.e.e.e.0.e.e.e.t.t.M l s s n M / { } } q.u.u.u.u.u.u.u.[ Q # ",
"u.u.u.u.u.u.u.u.u.u.u.u.D x n v P  .*.t.t.t.t.t.e.#.#.#.#.#.#.#.#.#.#.#.#.#.#.#.#.t.t.t.t.t.t.J v l s N D } u.u.u.u.u.u.u.u.u.t ",
"u.u.u.u.u.u.u.u.u.u.} } N x N J ( O.e.t.e.9.%.%.+.L L L L L L L L L L L L L L L L %.9.9.9.t.t.P J N M n n ` [ } u.u.u.} / / / > ",
"u.u.u.u.u.u.u.u.u.u.^ n v v o.t.t.t.t.t.] H F D x * * * * * * * * * * * * * * * * D H H H 0.t.t.t.t.t.s * e u S u.u.u.W & & &   ",
"u.u.u.u.u.u.u.u.} } ^ M N J o.e.*.$.@...L Z c c d * * ; ; , , , , , , , , ; ; ; ; c V V V ' o.0.e.t.t.v r i y Z } -.u./ p w < o ",
"u.u.u.u.u.u.u.u.D x N K $.t.#.] D c d d , * * * * * ; j j x x c c x x c x e e e e ; * * * w r L ] %.9.t.t.M s l N / u.u.u.} Q 6 ",
"u.u.u.u.u.u.u.u.D x N K $.t.#.] D c d d , * * * * * ; j j x x c c x x c x e e e e ; * * * w r L ] %.9.t.t.M s l N / u.u.u.} Q 6 ",
"u.u.u.u.u.u.q.q.N l ( *.%.%.Y U d , ; ; j V Z D V h k F F F F F F F F S S S S S S D D k g < ; < < F U 0.t.M s l n / u.u.u.q.q.0 ",
"u.u.u.u.u.u.-.q.N z X.r.%.#.Y H w * * ; c F H H F B B H H H H H H H H F F H H H H H H B B ; * * * V H 9.t.M s l n ^ q.u.u.u.u.t ",
"u.u.u.u.u.-.D D l s ' t.] U d < e g k V F H H H H S F H H U H H U #.] F F H H H H H H H F V k e e c c U Y ..O.J , n -.q.u.u.u.t ",
"u.u.u.u.u.-.M n s 1 ' t.] H w * e k C F H H H H H F H H H H H H Y 0.#.F F H H H H H H H H S C k g j x F H 9.t.K * l } -.u.u.u.t ",
"Q Q u.u.u.-.n n l s L Y D c g g B C F H H H H H H H H H H H H H Y e.@.V D H H H H H H H H H H B h e r S H #.e.K < l { } u.[ Q # ",
"S S u.u.u.-.x x l l D U c x k k C S H H H H H H H H H H H H H H Y e.@.c V H H H H H H H H H H B k w w Z H #.0.K 1 x ` [ u.[ S + ",
": < s s w w , , K o.U U c x k k C S H H H H H H H H H H H H H H U Y U S S H H H H H H H H H H B k e w Z H #.9.@.I N < p s p : X ",
"& & & & % % * * ( t.] U c x k k C S H H H H H H H H H H H H H H H H H F F H H H H H H H H H H B k w w D H #.9.%.$.J * * & & &   ",
">.>.>.>.| _ ; * I e.Y H j r h k S H H H H H H H F k c H H H H H H H H H H F F F F H H H H H H F F k g r w F Y ] *.( d n / / / - ",
"g.g.g.g.f.a., * I 0.Y H d < g k S H H H H H H H S e g F H H H H H H H H H S S S S H H H H H H H H B h ; * V H ] ;.( n ^ u.u.u.t ",
"i.i.i.i.,.-., ; I 0.Y H r ; : < w w w w w w r r w ; < w w r w w w r r r w w w w w w w w r r r w r < : ; * V H ] *.( n ^ u.u.u.t ",
"u.u.u.q.} { , , I 9.Y H w * * * * * * * * * * * * * * * * * * * * * * * * * * * * * * * * * * * * * * * * V H T $.( n ^ u.u.u.t ",
"u.u.u.u.-.{ ; * I 0.Y H d < j c D K K K K K P P P P P P K P P P P P P P P P P P K P P P P P K D D c j , * V H ] *.( n ^ u.u.u.t ",
"u.u.u.u.q.} * * I e.Y H j r A H #.e.r.t.t.t.t.t.t.t.t.t.t.t.t.t.t.t.t.t.t.t.t.t.t.t.t.t.t.t.t.#.] H F < * V H ] r.' n ^ u.u.u.t ",
"u.u.u.q.} { , ; I 0.Y H j d Z H #.t.K l I $.r.t.t.t.t.t.t.t.t.t.t.t.t.t.t.t.t.t.t.t.t.N v J K $.0.U H < * V H ] *.( n ^ u.u.u.t ",
"u.u.u.q.} { , , I 9.Y H x d D H %.t.l * N  .*.t.t.t.t.t.t.t.t.t.t.t.t.t.t.t.t.t.t.t.t.s ; l l $.t.Y H < * V H T $.( n ^ u.u.u.t ",
"u.u.u.q.} { , ; I 0.Y H x d D H #.r.n < K o.;.t.t.t.t.t.t.t.t.t.t.t.t.t.t.t.t.t.t.t.t.l < n M @.0.Y H < * V H ] $.( n ^ u.u.u.t ",
"u.u.u.u.-.} ; * I 0.Y H x d D H ] 9.L c ' e.r.t.t.t.t.t.t.t.t.t.t.t.t.t.t.t.t.t.t.t.t.D c L L T ] U H < * V H ] ;.( n ^ u.u.u.t ",
"u.u.u.u.-.} , ; I 0.Y H j r A H ] #.F V ` #.%.%.%.%.%.9.9.%.%.9.9.%.%.9.9.%.%.%.%.9.%.D V L L Y Y H H < * V H ] ;.( n ^ u.u.u.t ",
"u.u.u.q.} { , , L 9.Y H j w c F H H F F F H F F F F F H H F F H H F F H H F F F F H H F F H H F F C C < * V H ] $.( n ^ u.u.u.t ",
"u.u.u.q.} { , , I 9.Y H d < k A S F S A S S S S Z c V S S S S F S Z S S S Z A A A S S S Z S F S Z B B < * V H ] $.( n ^ u.u.u.t ",
"u.u.u.q.} { , * I 0.Y H e : e h h h h h h h h h e * ; 8 y h h h h h h h h 7 7 7 7 h h h h h h h h y y ; * V H ] *.( n ^ u.u.u.t ",
"{ { { { / W ; * I 0.Y H a : e h h k k k k k h h e ; : y y h k k h h h k h 8 8 8 8 h k h h h h h h h g ; * V H ] *.( l N { { { > ",
"& & & & % % * * I 0.Y H d w h k B B B B B B B B g : w B B B B B B B B B B B k k k B B h g h h B B k k : * V H ] *.J * * & & &   ",
": : < < < ; * * I 0.Y H j w h k B B C C C B B B k w e B B C C B B C C B B B B k k B B n n m A C C B k : * V H ] *.K , , < < : . ",
"S S u.q.} { , ; L 9.Y H j w h k F H H H H H H H F B C H H H H H H H H H H H H H H F F 6.h.k.l.} H B k < * V H ] $.( n ^ u.[ S + ",
"G Q u.u.} { ; ; L 9.Y H j w h k S H H H H H H H F B C U H F F H H H H H H H H H H F F 3.5.j.l.} H B k : * V H ] *.( n ^ u.[ G # ",
"u.u.u.u.q.} * * I e.` H d w h k S H H H H H H H H S F U S e j H H H H H H H H H H H H < * 7.8.{ H B k : * V H ] r.' M ^ u.u.u.t ",
"u.u.u.u.-.} ; * L 0.Y H d < h k S H H H H H H H H C S U S a j H H H H H H H H H H H F < * 4.8.{ H B k : * V H ] ;.( M ^ u.u.u.t ",
"u.u.u.q.} { , , L %.Y H j w h k S H H H H H H H F B B H H H H H H H H H H H H H H F F < * ~ 2./ H B k < * V H T $.( n ^ u.u.u.t ",
"u.u.u.q.} { , , L 9.Y H j w h k F U H F H H H H F B B H H H H H H H H H H H H H H F F < * ~ 2./ H B k < * V H ] $.( n ^ u.u.q.q ",
"u.u.u.u.q.} ; * I e.Y H d w h k F ] j w V H H H H S S H H S S H H H H H H H H H H H F E R ~ ~ / H B k : * V H ] r.' M ^ u.} Q 6 ",
"u.u.u.u.q.} ; * I e.` H j w h k F ] j w V H H H H S S H H S F H H H H H H H H H H H F E R ~ ~ / H B k : * V H ] r.' M ^ u.} Q 7 ",
"u.u.u.q.} { ; ; I 0.Y H j w h k F U V h S H H H H H H H H H H H H H H H H H H H H F F 4 2 5 f D H B k : * V H ] *.K < p d d p O ",
"u.u.u.q.} { , ; L 9.Y H j w h k S H C B S H H H H H H H H H H H H H H H H H H H H F F < ; < w S H B k < * V H ] $.N * & & & *   ",
"u.u.u.q.} { ; ; I 0.Y H d : y k S H F F H H H H S d j S F H H H H H H H H C C C V F H c k c c F H k h : * V H ] *.( d n ^ ^ W @ ",
"u.u.u.q.} { ; ; I 0.Y H e : y k F H H H H H H H V : r C S H H H H H H H H B B k k F H F F H H H H k g ; * V H ] *.( n ^ u.u.u.t ",
"Q ` u.q.} { , ; I 0.Y H r ; < w d d d d d d d d r < < r d d d d d d d d d r r r r d d d d d d d d w : ; * V H ] *.( n ^ u.} Q 6 ",
"S S u.q.} { , ; I 0.Y H w * ; , , ; , , , , , , , , , , , < , ; , < , , , , , , , , , , , , ; , , ; * * * V H ] *.( n ^ u.[ S + ",
"e a x l d s * * I 0.Y H d < j c D K K P K K K K K K K K K P K K K P K K K P P K K K K K K K K K K c x , * V H ] *.K 3 s x d w O ",
"& & * & % % * * L 0.Y H x d D H %.t.t.t.t.t.t.t.t.t.t.t.t.t.t.t.t.t.t.t.t.t.t.t.t.t.t.t.t.t.t.r.e.Y H < * V H ] $.J * * & & *   ",
"N N N N m n * * I 0.Y H x d D H %.t.K v ( *.r.t.t.t.t.t.t.t.t.t.t.t.t.t.t.t.t.t.t.t.t.J v K K *.t.Y H < * V H ] *.( z M ) ^ N @ ",
"u.u.u.u.-.{ ; * I 0.Y H x d D H %.t.l * J $.e.t.t.t.t.t.t.t.t.t.t.t.t.t.t.t.t.t.t.t.t.1 * l l $.t.Y H < * V H ] ;.X.! :.g.d.u.t ",
"u.u.u.u.} { , ; I 0.Y H x d D H #.0.D j I %.r.t.t.t.t.t.t.t.t.t.t.t.t.t.t.t.t.t.t.t.t.b x D K ] ] U H < * V H ] *.( M _ s.i.u.t ",
"u.u.u.q.} { , , I 9.Y H x d D H ] #.Y H ] 0.r.t.t.t.t.t.t.t.t.t.t.t.t.t.t.t.t.t.t.t.t.Y U ] ] U U H H < * V H T $.( n ^ u.u.u.t ",
"u.u.u.u.} { , ; I 0.Y H j w x V D L D V D L L L L L L L L L L L L L L L L L L L L L L D V D D D V V c < * x V L +./ n ^ u.u.u.t ",
"u.u.u.u.q.} ; * I e.Y H e ; d j j j j j j j j j j j j j j j j j j x j j j j j j j j j j j j j j j d d ; * d j D ] L n ^ u.u.u.t ",
"u.u.u.u.-.} ; * K %.Y H e : d j j j j j j j j j j d d j j j j j j j j j j j j j j j j j j j j j j d a ; * r d b T L n ^ u.u.u.t ",
"u.u.u.q.} { , , x V F H e : y k k k k k k k k h e * : y g k k k k k k k h 8 8 7 7 h k k k k k k k g y : * < < d S D n ^ u.u.u.t ",
"u.u.u.q.} { , , x D F H e : y k B B B B B B k k g ; < g h B B B B B B B k e e e e k B k k k B B B h y ; * < r x F D n ^ u.u.u.t ",
"u.u.u.u.-.} * * b L U H j w h k C F S S F F F F S c V F F S S F F S S F F S S S S S S g e A F S S B k : * j c L @.( n ^ u.u.u.t ",
"u.u.u.u.-.} ; * c L H H d w h k C F F F F F F F S c V F F F F F F F F F F F F S S F F g g C F F F B k : * d c D ] / n ^ u.u.u.t ",
"u.u.u.q.} { , , x V S F d w h k S H H H H H H H F B B H H H H H H H H H H H H H H Y Y U H H H H H B k < * < < d F D n ^ u.u.u.t ",
"u.u.u.q.} { , , j c Z D e < y h A F F F F F F F S k B F F F F F F F F F F F F F F U U F F F F F F k h : * < < d D m n ^ u.u.u.t ",
"u.u.u.q.} { , ; , , * * * * ; ; ; , , < , , , , , ; ; , , < < ; , < < , , < < , , , , ; ; , , < < ; ; * * * * ; , s n ^ u.u.u.t ",
"{ { { { ` / & & & & $ $ $ $ & = & & = = = = = = = & & & & = = & & = = & & = = = = = * & & & & = = & $ $ $ $ $ & = < l M { { { 9 "
};
