/* XPM */
static char *_cd70fb452104d5cd26ba8cfe34d3524UKSK4mqrbE2rhhgD[] = {
/* columns rows colors chars-per-pixel */
"64 40 11 1 ",
"  c None",
". c #33323D",
"X c #D06C63",
"o c #CD897C",
"O c #DE9970",
"+ c #EED878",
"@ c #68538A",
"# c #7B7BAB",
"$ c #EEBC9D",
"% c #EAC088",
"& c white",
/* pixels */
"                                                                ",
"                                                                ",
"                                                                ",
"                                                                ",
"                           ..........                           ",
"                          .@@########.                          ",
"                         .@@#.......##.                         ",
"                         .@@.&&&&&&&.#.                         ",
"                         .@@.&..&..&.#.                         ",
"                         .@@.&..&..&.#.                         ",
"                         .@@#.&&&&&.##.                         ",
"                         .@@#.&@&@&.##.                         ",
"                     ... .@@##########. ...                     ",
"                    .##. .@@##########. .##.                    ",
"                    .#.....@@@#####@#@@...#.                    ",
"                    .######################.                    ",
"                     ......................                     ",
"                        .......XXXXX....                        ",
"                        .o.&&.XOOOOOO.o.                        ",
"                        .o....XOO%%OO.$.                        ",
"                        .o.&.&.XOOOO.$$.                        ",
"                       ..oo...o.....$$$.                        ",
"                      .XX.oooo$$$$$$$$...                       ",
"                     .OOOX............X.X.                      ",
"                     .OOOXXXXXXXXXXXXXO.X.                      ",
"                     ....XXXOOO....OOOO...                      ",
"                     .$$$......+++&.....o.                      ",
"                      ...@@###@@@@@####..                       ",
"                        .@@#.........##.                        ",
"                        ..@@.      .@@@.                        ",
"                        .oo.       .oo.                         ",
"                        ...        ...                          ",
"                                                                ",
"                                                                ",
"                                                                ",
"                                                                ",
"                                                                ",
"                                                                ",
"                                                                ",
"                                                                "
};
